<svg width="28" height="29" viewBox="0 0 28 29" fill="none" xmlns="http://www.w3.org/2000/svg">
<g clip-path="url(#clip0_1_303)">
<path fill-rule="evenodd" clip-rule="evenodd" d="M13.9698 3.38675C9.55091 3.38675 5.8736 7.06407 5.8736 11.4829V13.7269H3.36673V11.4829C3.36673 5.67956 8.16641 0.879883 13.9698 0.879883C19.7731 0.879883 24.5728 5.67956 24.5728 11.4829V13.7269H22.066V11.4829C22.066 7.06407 18.3886 3.38675 13.9698 3.38675Z" fill="#0D333F"/>
<path fill-rule="evenodd" clip-rule="evenodd" d="M3.12335 14.9809C2.81832 14.9809 2.50686 15.2924 2.50686 15.5975V18.8386C2.50686 19.1437 2.81832 19.4551 3.12335 19.4551H4.48781V14.9809H3.12335ZM0 15.5975C0 13.908 1.43381 12.4741 3.12335 12.4741H6.99467V21.962H3.12335C1.43381 21.962 0 20.5282 0 18.8386V15.5975Z" fill="#0D333F"/>
<path fill-rule="evenodd" clip-rule="evenodd" d="M21.0054 12.4746H24.8767C26.5663 12.4746 28.0001 13.9084 28.0001 15.598V18.8392C28.0001 20.5288 26.5663 21.9626 24.8767 21.9626H21.0054V12.4746ZM23.5123 14.9815V19.4557H24.8767C25.1818 19.4557 25.4932 19.1443 25.4932 18.8392V15.598C25.4932 15.293 25.1818 14.9815 24.8767 14.9815H23.5123Z" fill="#0D333F"/>
<path fill-rule="evenodd" clip-rule="evenodd" d="M22.4817 22.576V20.7061H24.1529V22.576C24.1529 25.0944 22.0958 27.1514 19.5775 27.1514H13.843V25.4802H19.5775C21.1729 25.4802 22.4817 24.1714 22.4817 22.576Z" fill="#0D333F"/>
<path d="M14.1561 28.1875C15.1888 28.1875 16.026 27.3503 16.026 26.3176C16.026 25.2847 15.1888 24.4475 14.1561 24.4475C13.1232 24.4475 12.286 25.2847 12.286 26.3176C12.286 27.3503 13.1232 28.1875 14.1561 28.1875Z" fill="#0D333F"/>
</g>
<defs>
<clipPath id="clip0_1_303">
<rect width="28" height="28" fill="white" transform="translate(0 0.879883)"/>
</clipPath>
</defs>
</svg>
