<svg width="28" height="29" viewBox="0 0 28 29" fill="none" xmlns="http://www.w3.org/2000/svg">
<g clip-path="url(#clip0_1_282)">
<mask id="mask0_1_282" style="mask-type:luminance" maskUnits="userSpaceOnUse" x="0" y="0" width="28" height="29">
<path d="M28 0.879883H0V28.8799H28V0.879883Z" fill="white"/>
</mask>
<g mask="url(#mask0_1_282)">
<path fill-rule="evenodd" clip-rule="evenodd" d="M16.1018 2.03442C16.1151 1.38364 16.6534 0.866852 17.3041 0.880133C21.8244 0.972382 25.6244 4.73863 25.6244 9.22426C25.6244 9.87516 25.0968 10.4028 24.4459 10.4028C23.795 10.4028 23.2673 9.87516 23.2673 9.22426C23.2673 6.06637 20.5386 3.3038 17.2561 3.23681C16.6053 3.22353 16.0885 2.68521 16.1018 2.03442Z" fill="#0D333F"/>
<path fill-rule="evenodd" clip-rule="evenodd" d="M15.4601 6.01232C15.475 5.57863 15.8387 5.23918 16.2724 5.25414C18.994 5.34798 21.1566 7.51049 21.2504 10.2322C21.2654 10.6658 20.9259 11.0295 20.4923 11.0445C20.0585 11.0595 19.6948 10.72 19.6799 10.2863C19.6145 8.39003 18.1145 6.89004 16.2182 6.82465C15.7845 6.80969 15.4451 6.446 15.4601 6.01232Z" fill="#0D333F"/>
<path fill-rule="evenodd" clip-rule="evenodd" d="M14.8224 9.70174C14.8224 9.2678 15.1741 8.91602 15.608 8.91602C16.6962 8.91602 17.7322 9.79265 17.582 10.9935C17.5282 11.4241 17.1355 11.7295 16.7049 11.6757C16.2743 11.6219 15.9689 11.2292 16.0228 10.7986C16.0293 10.7461 16.0146 10.6821 15.9482 10.6156C15.8796 10.547 15.7623 10.4875 15.608 10.4875C15.1741 10.4875 14.8224 10.1357 14.8224 9.70174Z" fill="#0D333F"/>
<path fill-rule="evenodd" clip-rule="evenodd" d="M5.65584 8.73625C5.03025 8.73625 4.37144 9.36223 4.37144 10.1799V25.865C4.37144 26.7032 4.9694 27.3086 5.65584 27.3086H16.4045C17.0301 27.3086 17.6889 26.6827 17.6889 25.865V13.0462H19.2604V25.865C19.2604 27.4359 18.0083 28.8801 16.4045 28.8801H5.65584C3.95366 28.8801 2.79999 27.4154 2.79999 25.865V10.1799C2.79999 8.60893 4.05205 7.16479 5.65584 7.16479H13.4585V8.73625H5.65584Z" fill="#0D333F"/>
<path d="M11.6275 12.4888H10.9905V13.1257C10.1147 13.2054 9.07965 13.8423 9.07965 14.957C9.07965 16.1513 9.95547 16.4697 10.9905 16.7882V18.301C10.5924 18.301 10.0351 18.0622 9.71661 17.664C9.39813 17.9825 9.07965 18.301 8.84079 18.6195C9.39813 19.0972 10.2739 19.4157 10.9905 19.4157V20.0527H11.6275V19.4157C12.6625 19.4157 13.618 18.7788 13.618 17.5048C13.618 16.2309 12.5033 15.9124 11.6275 15.5939V14.1608C12.0255 14.1608 12.4237 14.32 12.7422 14.6385C13.0606 14.32 13.2995 14.0015 13.618 13.683C13.0606 13.285 12.344 13.0461 11.6275 13.0461V12.4888ZM10.9905 15.4347C10.5924 15.3551 10.3536 15.1163 10.3536 14.7978C10.3536 14.3997 10.672 14.2405 10.9905 14.1608V15.4347ZM11.6275 16.8679C12.0255 16.9475 12.2645 17.1864 12.2645 17.5845C12.2645 17.9825 12.0255 18.2213 11.6275 18.301V16.8679Z" fill="#0D333F"/>
<path d="M18.4745 24.2725H3.74481V27.7757H18.4745V24.2725Z" fill="#0D333F"/>
<path d="M11.3089 28.094C12.0255 28.094 12.6624 27.4571 12.6624 26.7405C12.6624 26.0238 12.0255 25.387 11.3089 25.387C10.5923 25.387 9.95535 26.0238 9.95535 26.7405C10.035 27.4571 10.5923 28.094 11.3089 28.094Z" fill="#DBEDEE"/>
</g>
</g>
<defs>
<clipPath id="clip0_1_282">
<rect width="28" height="28" fill="white" transform="translate(0 0.879883)"/>
</clipPath>
</defs>
</svg>
