<svg width="28" height="34" viewBox="0 0 28 34" fill="none" xmlns="http://www.w3.org/2000/svg">
<g clip-path="url(#clip0_1_333)">
<path fill-rule="evenodd" clip-rule="evenodd" d="M2.68588 18.7138C2.75306 24.8752 7.76239 29.8622 13.8276 29.8622C19.9745 29.8622 24.9693 24.8674 24.9693 18.7205C24.9693 12.5736 19.9745 7.57879 13.8287 7.57879C7.6829 7.57879 2.68924 12.5702 2.68588 18.7138ZM0.00430298 18.7205C0.00430298 11.0934 6.20047 4.89722 13.8276 4.89722C21.4547 4.89722 27.6508 11.0934 27.6508 18.7205C27.6508 26.3476 21.4547 32.5437 13.8276 32.5437C6.26429 32.5437 0.0837985 26.3431 0.00430298 18.7339V18.7205Z" fill="#0D333F"/>
<path fill-rule="evenodd" clip-rule="evenodd" d="M12.793 9.82491H14.58V18.2458L20.8601 22.5005L19.8569 23.9796L12.7919 19.1942V9.82603L12.793 9.82491ZM15.17 2.22021V6.23754H12.4885V2.22021H15.17Z" fill="#0D333F"/>
<path fill-rule="evenodd" clip-rule="evenodd" d="M8.75217 2.22011C8.75217 1.48114 9.35342 0.879883 10.0935 0.879883H16.9794C17.335 0.879883 17.676 1.02114 17.9275 1.27259C18.1789 1.52404 18.3202 1.86507 18.3202 2.22067C18.3202 2.57627 18.1789 2.9173 17.9275 3.16875C17.676 3.4202 17.335 3.56146 16.9794 3.56146H10.0935C9.91732 3.5616 9.74284 3.52701 9.58003 3.45965C9.41722 3.3923 9.26929 3.2935 9.14471 3.16891C9.02012 3.04433 8.92133 2.8964 8.85397 2.7336C8.78661 2.57079 8.75202 2.3963 8.75217 2.22011Z" fill="#0D333F"/>
</g>
<defs>
<clipPath id="clip0_1_333">
<rect width="27.9914" height="32.47" fill="white" transform="translate(0.00430298 0.879883)"/>
</clipPath>
</defs>
</svg>
