<svg width="28" height="29" viewBox="0 0 28 29" fill="none" xmlns="http://www.w3.org/2000/svg">
<g clip-path="url(#clip0_1_262)">
<path fill-rule="evenodd" clip-rule="evenodd" d="M6.18323 1.67262C6.25668 1.2158 6.65093 0.879883 7.11362 0.879883H27.0576C27.3337 0.879883 27.5959 1.00093 27.7748 1.21106C27.9539 1.42119 28.0318 1.69926 27.988 1.97182L25.8285 15.4021C25.755 15.8589 25.3608 16.1948 24.8981 16.1948H4.95408C4.67802 16.1948 4.41585 16.0737 4.2368 15.8636C4.05776 15.6535 3.97986 15.3755 4.02369 15.1028L6.18323 1.67262ZM7.91653 2.76456L6.06005 14.3101H24.0952L25.9517 2.76456H7.91653Z" fill="#0D333F"/>
<path d="M17.8936 9.84483C18.7887 8.6274 18.6696 7.05622 17.6275 6.3355C16.5856 5.61478 15.0152 6.01744 14.1202 7.23487C13.2252 8.4523 13.3443 10.0235 14.3863 10.7442C15.4283 11.4649 16.9987 11.0623 17.8936 9.84483Z" fill="#0D333F"/>
<path d="M9.14663 7.24342C10.9251 7.24342 12.5764 6.01129 12.8305 4.3479H12.7035H11.4967C11.2427 5.21039 10.3534 5.88808 9.33717 6.01129L9.14663 7.24342Z" fill="#0D333F"/>
<path d="M22.8653 9.83105C21.0869 9.83105 19.4355 11.1248 19.1814 12.7265H20.5152C20.7692 11.8641 21.6585 11.1864 22.6747 11.0632L22.8653 9.83105Z" fill="#0D333F"/>
<path d="M21.1507 6.25771C21.6589 6.81217 22.4211 7.18182 23.3103 7.24342L23.5009 6.01129C22.9292 6.01129 22.4211 5.82646 22.1035 5.45683C21.8494 5.14879 21.7224 4.77915 21.786 4.3479H20.5156C20.4521 5.08718 20.6426 5.76486 21.1507 6.25771Z" fill="#0D333F"/>
<path d="M10.8612 10.8168C10.3531 10.2623 9.5909 9.89267 8.70168 9.83105L8.51114 11.0632C9.08278 11.0632 9.5909 11.248 9.90849 11.6177C10.1625 11.9257 10.2896 12.2953 10.2261 12.7265H11.4964C11.5599 11.9873 11.3693 11.3096 10.8612 10.8168Z" fill="#0D333F"/>
<path d="M0.762169 4.90254H3.81093L4.00148 3.67041H0.952716L0.762169 4.90254Z" fill="#0D333F"/>
<path d="M0.38089 7.24386H3.42965L3.6202 6.01172H0.571438L0.38089 7.24386Z" fill="#0D333F"/>
<path d="M0 9.58467H3.04876L3.23931 8.35254H0.190548L0 9.58467Z" fill="#0D333F"/>
</g>
<defs>
<clipPath id="clip0_1_262">
<rect width="28" height="28" fill="white" transform="translate(0 0.879883)"/>
</clipPath>
</defs>
</svg>
