<svg width="28" height="29" viewBox="0 0 28 29" fill="none" xmlns="http://www.w3.org/2000/svg">
<g clip-path="url(#clip0_1_319)">
<path fill-rule="evenodd" clip-rule="evenodd" d="M0.933319 5.86717C0.933319 3.14582 3.19925 0.879883 5.92061 0.879883H26.3494C27.1681 0.879883 27.8318 1.54356 27.8318 2.36224C27.8318 3.18091 27.1681 3.84459 26.3494 3.84459C25.2655 3.84459 24.3269 4.78318 24.3269 5.86717V27.3975C24.3269 27.8786 24.0934 28.3298 23.7006 28.6076C23.3079 28.8855 22.8047 28.9555 22.3511 28.7954L17.7373 27.167L13.1235 28.7954C12.8042 28.908 12.456 28.908 12.1367 28.7954L7.52288 27.167L2.90902 28.7954C2.45538 28.9555 1.95223 28.8855 1.55951 28.6076C1.16678 28.3298 0.933319 27.8786 0.933319 27.3975V5.86717ZM21.8007 3.84459H5.92061C4.83662 3.84459 3.89802 4.78318 3.89802 5.86717V25.3024L7.02952 24.1971C7.34878 24.0844 7.69698 24.0844 8.01623 24.1971L12.6301 25.8255L17.2439 24.1971C17.5631 24.0844 17.9114 24.0844 18.2306 24.1971L21.3621 25.3024V5.86717C21.3621 5.15035 21.5193 4.46513 21.8007 3.84459Z" fill="#0D333F"/>
<path fill-rule="evenodd" clip-rule="evenodd" d="M6.72171 9.88599H17.9375V11.8625H6.72171V9.88599Z" fill="#0D333F"/>
<path fill-rule="evenodd" clip-rule="evenodd" d="M6.72171 15.594H12.6301V17.5704H6.72171V15.594Z" fill="#0D333F"/>
</g>
<defs>
<clipPath id="clip0_1_319">
<rect width="28" height="28" fill="white" transform="translate(0 0.879883)"/>
</clipPath>
</defs>
</svg>
