<svg width="15" height="25" viewBox="0 0 15 25" fill="none" xmlns="http://www.w3.org/2000/svg">
<path d="M13.6001 8.85511L7.80011 14.6451L2.01011 8.85511C1.94493 8.78859 1.86714 8.73574 1.78128 8.69966C1.69542 8.66359 1.60323 8.645 1.51011 8.645C1.41698 8.645 1.32479 8.66359 1.23893 8.69966C1.15307 8.73574 1.07528 8.78859 1.01011 8.85511C0.943585 8.92028 0.89074 8.99808 0.854663 9.08393C0.818586 9.16979 0.800003 9.26198 0.800003 9.35511C0.800003 9.44823 0.818586 9.54043 0.854663 9.62628C0.89074 9.71214 0.943585 9.78993 1.01011 9.85511L7.30011 16.1451C7.36528 16.2116 7.44307 16.2645 7.52893 16.3005C7.61479 16.3366 7.70698 16.3552 7.80011 16.3552C7.89323 16.3552 7.98542 16.3366 8.07128 16.3005C8.15714 16.2645 8.23493 16.2116 8.30011 16.1451L14.5901 9.85511C14.6566 9.78993 14.7095 9.71214 14.7455 9.62628C14.7816 9.54043 14.8002 9.44823 14.8002 9.35511C14.8002 9.26198 14.7816 9.16979 14.7455 9.08393C14.7095 8.99808 14.6566 8.92028 14.5901 8.85511C14.5258 8.78888 14.4488 8.73623 14.3638 8.70028C14.2788 8.66433 14.1874 8.64581 14.0951 8.64581C14.0028 8.64581 13.9114 8.66433 13.8264 8.70028C13.7414 8.73623 13.6644 8.78888 13.6001 8.85511Z" fill="#0D333F"/>
</svg>
