<svg width="16" height="13" viewBox="0 0 16 13" fill="none" xmlns="http://www.w3.org/2000/svg">
<path d="M15.0711 1.71011C14.8836 1.52265 14.6293 1.41733 14.3641 1.41733C14.099 1.41733 13.8447 1.52265 13.6571 1.71011L5.87916 9.4881L2.34316 5.9531C2.15456 5.771 1.90195 5.6702 1.63976 5.6724C1.37756 5.6747 1.12675 5.7799 0.941335 5.9653C0.755925 6.1507 0.650755 6.4015 0.648475 6.6637C0.646195 6.9259 0.746996 7.1785 0.929156 7.3671L5.17216 11.6101C5.35968 11.7976 5.61399 11.9029 5.87916 11.9029C6.14433 11.9029 6.39863 11.7976 6.58613 11.6101L15.0711 3.12411C15.2586 2.93658 15.3639 2.68227 15.3639 2.41711C15.3639 2.15195 15.2586 1.89764 15.0711 1.71011Z" fill="#2CA01C"/>
</svg>
