<svg width="35" height="34" viewBox="0 0 35 34" fill="none" xmlns="http://www.w3.org/2000/svg">
<g clip-path="url(#clip0_1_494)">
<path d="M6.15601 15.8267V13.1417C6.15601 7.02466 11.229 1.95166 17.346 1.95166C23.462 1.95166 28.534 7.02466 28.534 13.1417V15.8267" stroke="white" stroke-width="3" stroke-miterlimit="10"/>
<path d="M2.12799 18.0637C2.12799 16.8707 3.17199 15.8257 4.36599 15.8257H7.49899V24.1807H4.36599C3.17199 24.1807 2.12799 23.1357 2.12799 21.9427V18.0637ZM27.266 15.8267H30.399C31.592 15.8267 32.636 16.8707 32.636 18.0647V21.9437C32.636 23.1367 31.592 24.1807 30.398 24.1807H27.266V15.8267Z" stroke="white" stroke-width="3"/>
<path d="M28.533 24.1807V26.4187C28.5296 27.6045 28.057 28.7409 27.2186 29.5795C26.3801 30.4182 25.2439 30.891 24.058 30.8947H17.195" stroke="white" stroke-width="2" stroke-miterlimit="10"/>
<path d="M17.568 33.1318C18.1616 33.1318 18.7308 32.896 19.1505 32.4763C19.5702 32.0566 19.806 31.4873 19.806 30.8938C19.806 30.3002 19.5702 29.731 19.1505 29.3113C18.7308 28.8916 18.1616 28.6558 17.568 28.6558C16.9745 28.6558 16.4052 28.8916 15.9855 29.3113C15.5658 29.731 15.33 30.3002 15.33 30.8938C15.33 31.4873 15.5658 32.0566 15.9855 32.4763C16.4052 32.896 16.9745 33.1318 17.568 33.1318Z" fill="white"/>
</g>
<defs>
<clipPath id="clip0_1_494">
<rect width="35" height="33" fill="white" transform="translate(0 0.339844)"/>
</clipPath>
</defs>
</svg>
