<svg width="16" height="17" viewBox="0 0 16 17" fill="none" xmlns="http://www.w3.org/2000/svg">
<g clip-path="url(#clip0_1_607)">
<path fill-rule="evenodd" clip-rule="evenodd" d="M12.344 11.3499C12.1957 11.2027 12.014 11.0937 11.8145 11.0321C11.6149 10.9704 11.4034 10.958 11.198 10.9959L10.678 10.4759C12.5 8.13186 12.333 4.73586 10.188 2.58986C9.6351 2.0338 8.97748 1.59285 8.25315 1.29247C7.52881 0.992095 6.75213 0.83826 5.96799 0.839856C5.18418 0.838524 4.40788 0.992488 3.6839 1.29286C2.95993 1.59322 2.30264 2.03404 1.74999 2.58986C1.19516 3.14346 0.754971 3.80107 0.454631 4.52503C0.154291 5.24898 -0.000305176 6.02507 -0.000305176 6.80886C-0.000305176 7.59264 0.154291 8.36873 0.454631 9.09268C0.754971 9.81664 1.19516 10.4742 1.74999 11.0279C2.30276 11.5838 2.96021 12.0247 3.68437 12.325C4.40852 12.6254 5.18501 12.7793 5.96899 12.7779C7.29744 12.7793 8.58809 12.3357 9.63499 11.5179L10.156 12.0379C10.083 12.4339 10.198 12.8709 10.51 13.1839L13.792 16.4649C14.0368 16.7046 14.3658 16.8388 14.7085 16.8388C15.0511 16.8388 15.3802 16.7046 15.625 16.4649C16.125 15.9549 16.125 15.1419 15.625 14.6319L12.344 11.3499ZM2.79199 9.98586C2.37359 9.56931 2.04159 9.07423 1.81505 8.52903C1.58851 7.98383 1.47189 7.39925 1.47189 6.80886C1.47189 6.21846 1.58851 5.63388 1.81505 5.08868C2.04159 4.54348 2.37359 4.0484 2.79199 3.63186C3.20678 3.21091 3.70147 2.87706 4.24703 2.64987C4.79258 2.42268 5.37802 2.30674 5.96899 2.30886C7.11499 2.30886 8.27099 2.74586 9.14599 3.63186C9.56438 4.0484 9.89638 4.54348 10.1229 5.08868C10.3495 5.63388 10.4661 6.21846 10.4661 6.80886C10.4661 7.39925 10.3495 7.98383 10.1229 8.52903C9.89638 9.07423 9.56438 9.56931 9.14599 9.98586C8.73058 10.406 8.23578 10.7393 7.69036 10.9664C7.14495 11.1936 6.55981 11.31 5.96899 11.3089C5.37802 11.311 4.79258 11.195 4.24703 10.9678C3.70147 10.7407 3.20678 10.4068 2.79199 9.98586Z" fill="#BABEC5"/>
</g>
<defs>
<clipPath id="clip0_1_607">
<rect width="16" height="16" fill="white" transform="translate(0 0.839844)"/>
</clipPath>
</defs>
</svg>
