<svg width="30" height="22" viewBox="0 0 30 22" fill="none" xmlns="http://www.w3.org/2000/svg">
<g clip-path="url(#clip0_1_635)">
<mask id="mask0_1_635" style="mask-type:luminance" maskUnits="userSpaceOnUse" x="0" y="0" width="30" height="21">
<path d="M3.933 1.51164C3.33867 1.66739 2.79566 1.9765 2.35832 2.40805C1.92099 2.83959 1.60466 3.37843 1.441 3.97064C0.937004 5.82464 0.865004 9.40164 0.854004 10.4006V10.9316C0.865004 11.9316 0.937004 15.5066 1.441 17.3606C1.60466 17.9528 1.92099 18.4917 2.35832 18.9232C2.79566 19.3548 3.33867 19.6639 3.933 19.8196C6.13 20.4006 14.94 20.4006 14.94 20.4006C14.94 20.4006 23.751 20.4006 25.947 19.8196C26.5413 19.664 27.0842 19.3549 27.5214 18.9233C27.9586 18.4918 28.2747 17.9529 28.438 17.3606C28.959 15.4406 29.018 11.6736 29.026 10.8346V10.4986C29.018 9.65964 28.959 5.89164 28.438 3.97064C28.2747 3.37841 27.9586 2.83951 27.5214 2.40793C27.0842 1.97635 26.5413 1.66727 25.947 1.51164C23.751 0.931641 14.94 0.931641 14.94 0.931641C14.94 0.931641 6.13 0.931641 3.933 1.51164V1.51164ZM12.059 6.55764L19.422 10.6666L12.059 14.7746V6.55764V6.55764Z" fill="#6B6C72"/>
</mask>
<g mask="url(#mask0_1_635)">
<path fill-rule="evenodd" clip-rule="evenodd" d="M-4.146 25.3033H34.026V-3.97266H-4.146V25.3033Z" fill="#6B6C72"/>
</g>
</g>
<defs>
<clipPath id="clip0_1_635">
<rect width="30" height="21" fill="white" transform="translate(0 0.339844)"/>
</clipPath>
</defs>
</svg>
