<svg width="21" height="18" viewBox="0 0 21 18" fill="none" xmlns="http://www.w3.org/2000/svg">
<g clip-path="url(#clip0_1_627)">
<mask id="mask0_1_627" style="mask-type:luminance" maskUnits="userSpaceOnUse" x="-1" y="0" width="23" height="18">
<path d="M14.4533 0.607422C12.0934 0.648547 10.1929 2.53767 10.1929 4.86255C10.1929 5.19767 10.2314 5.52142 10.3049 5.83292C8.58721 5.75228 6.90507 5.31532 5.3653 4.5498C3.82553 3.78428 2.46177 2.70693 1.36064 1.38617C0.976201 2.03357 0.773378 2.77261 0.77351 3.52555C0.77351 5.00255 1.54001 6.30542 2.70376 7.06755C2.01592 7.04749 1.34254 6.86521 0.73851 6.53555V6.58892C0.73851 8.65217 2.23389 10.3724 4.21926 10.7635C3.57935 10.9323 2.91002 10.9574 2.25926 10.837C2.81226 12.5267 4.41439 13.7578 6.31314 13.7919C4.7676 14.9784 2.87247 15.6194 0.92401 15.6145C0.573135 15.6145 0.22751 15.5944 -0.111115 15.5542C1.88079 16.8076 4.18717 17.4708 6.54064 17.4669C14.5215 17.4669 18.8869 10.9805 18.8869 5.35605C18.8869 5.1723 18.8825 4.98855 18.8746 4.80655C19.7216 4.20616 20.4547 3.45946 21.0394 2.60155C20.2606 2.94105 19.425 3.1703 18.5474 3.27267C19.4488 2.74606 20.1272 1.90893 20.4558 0.918047C19.6166 1.40542 18.6883 1.7598 17.6995 1.95055C17.2993 1.53367 16.8204 1.20032 16.2905 0.969768C15.7607 0.73922 15.1903 0.616062 14.6125 0.607422H14.4533Z" fill="#6B6C72"/>
</mask>
<g mask="url(#mask0_1_627)">
<path fill-rule="evenodd" clip-rule="evenodd" d="M-4.48523 21.7569H25.4135V-3.68457H-4.48523V21.7569Z" fill="#6B6C72"/>
</g>
</g>
<defs>
<clipPath id="clip0_1_627">
<rect width="21" height="17.5" fill="white" transform="translate(0 0.0898438)"/>
</clipPath>
</defs>
</svg>
