<svg width="18" height="20" viewBox="0 0 18 20" fill="none" xmlns="http://www.w3.org/2000/svg">
<g clip-path="url(#clip0_1_644)">
<path fill-rule="evenodd" clip-rule="evenodd" d="M1.30301 19.065H4.98701V6.41699H1.30301V19.065Z" fill="#6B6C72"/>
<mask id="mask0_1_644" style="mask-type:luminance" maskUnits="userSpaceOnUse" x="0" y="0" width="6" height="6">
<path d="M0.84201 2.80292C0.84201 4.04992 1.87201 5.06092 3.14601 5.06092C4.42001 5.06092 5.44901 4.04992 5.44901 2.80292C5.44901 1.55492 4.42001 0.544922 3.14601 0.544922C1.87201 0.544922 0.84201 1.55492 0.84201 2.80292Z" fill="#6B6C72"/>
</mask>
<g mask="url(#mask0_1_644)">
<path fill-rule="evenodd" clip-rule="evenodd" d="M-4.15598 9.96462H10.448V-4.35938H-4.15598V9.96462Z" fill="#6B6C72"/>
</g>
<mask id="mask1_1_644" style="mask-type:luminance" maskUnits="userSpaceOnUse" x="6" y="6" width="12" height="14">
<path d="M6.83002 6.41699V19.065H10.515V10.977C10.515 10.977 11.814 9.52399 13.565 10.291C14.082 10.588 14.199 11.024 14.199 11.386V19.065H17.883V11.386C17.883 9.72599 16.825 7.93799 15.368 7.13799C13.995 6.38299 11.972 6.31899 10.515 6.97199V6.41699H6.83002Z" fill="#6B6C72"/>
</mask>
<g mask="url(#mask1_1_644)">
<path fill-rule="evenodd" clip-rule="evenodd" d="M1.83102 23.9677H22.88V1.51367H1.83102V23.9677Z" fill="#6B6C72"/>
</g>
</g>
<defs>
<clipPath id="clip0_1_644">
<rect width="18" height="19" fill="white" transform="translate(0 0.339844)"/>
</clipPath>
</defs>
</svg>
